# MagicaVoxel @ Ephtracy

# group
o 

# material
mtllib Grandma Lumigo Friends.mtl
usemtl palette

# normals
vn -1 0 0
vn 1 0 0
vn 0 0 1
vn 0 0 -1
vn 0 -1 0
vn 0 1 0

# texcoords
vt 0.943359 0.5
vt 0.951172 0.5
vt 0.955078 0.5
vt 0.958984 0.5
vt 0.970703 0.5
vt 0.974609 0.5
vt 0.978516 0.5
vt 0.994141 0.5

# verts
v -0.6 1 0.1
v -0.6 1 -0.1
v -0.6 1 -0.2
v -0.6 1.1 0.2
v -0.6 1.1 0.1
v -0.6 1.1 -0.1
v -0.6 1.1 -0.2
v -0.6 1.5 0.2
v -0.6 1.5 -0.2
v -0.5 0.9 0
v -0.5 0.9 -0.2
v -0.5 1 0.2
v -0.5 1 0.1
v -0.5 1 0
v -0.5 1 -0.1
v -0.5 1 -0.2
v -0.5 1 -0.3
v -0.5 1.1 0.3
v -0.5 1.1 0.2
v -0.5 1.1 0.1
v -0.5 1.1 -0.2
v -0.5 1.1 -0.3
v -0.5 1.5 0.3
v -0.5 1.5 0.2
v -0.5 1.5 -0.2
v -0.5 1.6 0.2
v -0.5 1.6 -0.3
v -0.4 0.6 0.2
v -0.4 0.6 -0.1
v -0.4 0.7 0.2
v -0.4 0.7 0
v -0.4 0.8 0
v -0.4 0.8 -0.1
v -0.4 0.9 0
v -0.4 0.9 -0.1
v -0.4 0.9 -0.2
v -0.4 0.9 -0.3
v -0.4 1 -0.2
v -0.4 1 -0.3
v -0.4 1.1 -0.3
v -0.4 1.1 -0.4
v -0.4 1.5 0.3
v -0.4 1.5 0.2
v -0.4 1.5 -0.3
v -0.4 1.5 -0.4
v -0.4 1.6 0.3
v -0.4 1.6 0.2
v -0.4 1.6 0.1
v -0.4 1.6 -0.1
v -0.4 1.7 0.1
v -0.4 1.7 -0.1
v -0.3 0.2 0
v -0.3 0.2 -0.1
v -0.3 0.6 0
v -0.3 0.6 -0.1
v -0.3 0.8 -0.2
v -0.3 0.8 -0.3
v -0.3 0.9 -0.2
v -0.3 0.9 -0.3
v -0.3 1 0.3
v -0.3 1 0.2
v -0.3 1.1 0.3
v -0.3 1.1 0.2
v -0.3 1.6 -0.1
v -0.3 1.6 -0.3
v -0.3 1.7 -0.1
v -0.3 1.7 -0.3
v -0.2 0 0.1
v -0.2 0 -0.1
v -0.2 0.1 0.1
v -0.2 0.1 0
v -0.2 0.2 0.1
v -0.2 0.2 0
v -0.2 0.2 -0.1
v -0.2 0.2 -0.2
v -0.2 0.7 -0.2
v -0.2 0.7 -0.3
v -0.2 0.8 -0.2
v -0.2 0.8 -0.3
v -0.2 0.9 0.3
v -0.2 0.9 0.2
v -0.2 0.9 0.1
v -0.2 0.9 0
v -0.2 0.9 -0.1
v -0.2 0.9 -0.2
v -0.2 1 0.3
v -0.2 1 0.2
v -0.1 0.8 0.3
v -0.1 0.8 0.2
v -0.1 0.9 0.3
v -0.1 0.9 0.2
v 0 0 0.1
v 0 0 -0.1
v 0 0.1 0.1
v 0 0.1 0
v 0 0.2 0
v 0 0.2 -0.1
v 0.1 0.7 0
v 0.1 0.7 -0.1
v 0.1 0.8 0
v 0.1 0.8 -0.1
v 0.1 1 0.3
v 0.1 1 0.2
v 0.1 1.1 0.3
v 0.1 1.1 0.2
v 0.2 0 0.3
v 0.2 0 0.2
v 0.2 0.5 0.2
v 0.2 0.5 0.1
v 0.2 0.6 0.2
v 0.2 0.6 0.1
v 0.2 0.6 0
v 0.2 0.7 0.3
v 0.2 0.7 0.2
v 0.2 0.7 0
v 0.3 1.2 0.3
v 0.3 1.2 0.2
v 0.3 1.4 0.3
v 0.3 1.4 0.2
v -0.4 1.1 0.3
v -0.4 1.1 0.2
v -0.4 1.3 0.3
v -0.4 1.3 0.2
v -0.3 0.6 0.2
v -0.3 0.6 0
v -0.3 0.7 0.2
v -0.3 0.7 0
v -0.3 1.3 0.3
v -0.3 1.3 0.2
v -0.3 1.4 0.3
v -0.3 1.4 0.2
v -0.2 0.7 0
v -0.2 0.7 -0.1
v -0.2 0.8 0
v -0.2 0.8 -0.1
v -0.2 1 0.3
v -0.2 1 0.2
v -0.2 1.1 0.3
v -0.2 1.1 0.2
v -0.1 0 0.1
v -0.1 0 -0.1
v -0.1 0.1 0.1
v -0.1 0.1 0
v -0.1 0.2 0
v -0.1 0.2 -0.1
v 0 0.8 0.3
v 0 0.8 0.2
v 0 0.9 0.3
v 0 0.9 0.2
v 0.1 0 0.1
v 0.1 0 -0.1
v 0.1 0.1 0.1
v 0.1 0.1 0
v 0.1 0.2 0.1
v 0.1 0.2 0
v 0.1 0.2 -0.1
v 0.1 0.2 -0.2
v 0.1 0.7 -0.2
v 0.1 0.7 -0.3
v 0.1 0.8 -0.2
v 0.1 0.8 -0.3
v 0.1 0.9 0.3
v 0.1 0.9 0.2
v 0.1 0.9 0.1
v 0.1 0.9 0
v 0.1 0.9 -0.1
v 0.1 0.9 -0.2
v 0.1 1 0.3
v 0.1 1 0.2
v 0.1 1.1 -0.3
v 0.1 1.1 -0.4
v 0.1 1.2 -0.3
v 0.1 1.2 -0.4
v 0.2 0.2 0
v 0.2 0.2 -0.1
v 0.2 0.6 0
v 0.2 0.6 -0.1
v 0.2 0.8 -0.2
v 0.2 0.8 -0.3
v 0.2 0.9 -0.2
v 0.2 0.9 -0.3
v 0.2 1 0.3
v 0.2 1 0.2
v 0.2 1.1 0.3
v 0.2 1.1 0.2
v 0.2 1.2 -0.3
v 0.2 1.2 -0.4
v 0.2 1.3 -0.3
v 0.2 1.3 -0.4
v 0.3 0 0.3
v 0.3 0 0.2
v 0.3 0.5 0.2
v 0.3 0.5 0.1
v 0.3 0.6 0.2
v 0.3 0.6 0.1
v 0.3 0.6 -0.1
v 0.3 0.7 0.3
v 0.3 0.7 0.2
v 0.3 0.7 0
v 0.3 0.8 0
v 0.3 0.8 -0.1
v 0.3 0.9 0
v 0.3 0.9 -0.1
v 0.3 1.3 -0.3
v 0.3 1.3 -0.4
v 0.3 1.5 -0.3
v 0.3 1.5 -0.4
v 0.3 1.6 -0.2
v 0.3 1.6 -0.3
v 0.3 1.7 -0.2
v 0.3 1.7 -0.3
v 0.4 0.9 0
v 0.4 0.9 -0.3
v 0.4 1 0.2
v 0.4 1 0.1
v 0.4 1 0
v 0.4 1 -0.1
v 0.4 1 -0.2
v 0.4 1.1 -0.2
v 0.4 1.1 -0.3
v 0.4 1.2 0.3
v 0.4 1.2 0.2
v 0.4 1.2 0.1
v 0.4 1.5 -0.2
v 0.4 1.5 -0.3
v 0.4 1.6 0.3
v 0.4 1.6 0.2
v 0.4 1.6 0.1
v 0.4 1.6 -0.2
v 0.4 1.6 -0.3
v 0.4 1.7 0.1
v 0.4 1.7 -0.2
v 0.5 1 0.1
v 0.5 1 -0.1
v 0.5 1 -0.2
v 0.5 1.1 -0.1
v 0.5 1.1 -0.2
v 0.5 1.1 -0.3
v 0.5 1.2 0.2
v 0.5 1.2 0.1
v 0.5 1.5 -0.2
v 0.5 1.5 -0.3
v 0.5 1.6 0.2
v 0.5 1.6 -0.2
v -0.5 1.1 0.3
v -0.5 1.5 0.3
v -0.4 1.1 0.3
v -0.4 1.3 0.3
v -0.4 1.5 0.3
v -0.4 1.6 0.3
v -0.3 1 0.3
v -0.3 1.1 0.3
v -0.3 1.3 0.3
v -0.3 1.4 0.3
v -0.2 0.9 0.3
v -0.2 1 0.3
v -0.2 1.1 0.3
v -0.2 1.4 0.3
v -0.2 1.5 0.3
v -0.1 0.8 0.3
v -0.1 0.9 0.3
v 0 0.8 0.3
v 0 0.9 0.3
v 0.1 0.9 0.3
v 0.1 1 0.3
v 0.1 1.1 0.3
v 0.2 0 0.3
v 0.2 0.7 0.3
v 0.2 1 0.3
v 0.2 1.1 0.3
v 0.3 0 0.3
v 0.3 0.7 0.3
v 0.3 1.2 0.3
v 0.3 1.4 0.3
v 0.4 1.2 0.3
v 0.4 1.6 0.3
v -0.6 1.1 0.2
v -0.6 1.5 0.2
v -0.5 1 0.2
v -0.5 1.1 0.2
v -0.5 1.5 0.2
v -0.5 1.6 0.2
v -0.4 0.6 0.2
v -0.4 0.7 0.2
v -0.4 1.1 0.2
v -0.4 1.3 0.2
v -0.4 1.5 0.2
v -0.4 1.6 0.2
v -0.3 0.6 0.2
v -0.3 0.7 0.2
v -0.3 1 0.2
v -0.3 1.1 0.2
v -0.3 1.2 0.2
v -0.3 1.3 0.2
v -0.3 1.4 0.2
v -0.2 1 0.2
v -0.2 1.1 0.2
v -0.2 1.2 0.2
v -0.2 1.3 0.2
v -0.2 1.4 0.2
v 0.1 1 0.2
v 0.1 1.1 0.2
v 0.1 1.2 0.2
v 0.1 1.3 0.2
v 0.1 1.4 0.2
v 0.2 1 0.2
v 0.2 1.1 0.2
v 0.2 1.2 0.2
v 0.2 1.3 0.2
v 0.2 1.4 0.2
v 0.3 1.2 0.2
v 0.3 1.4 0.2
v 0.4 1 0.2
v 0.4 1.2 0.2
v 0.4 1.6 0.2
v 0.5 1.2 0.2
v 0.5 1.6 0.2
v -0.6 1 0.1
v -0.6 1.1 0.1
v -0.5 1 0.1
v -0.5 1.1 0.1
v -0.4 1.6 0.1
v -0.4 1.7 0.1
v -0.2 0 0.1
v -0.2 0.1 0.1
v -0.2 0.2 0.1
v -0.2 0.9 0.1
v -0.1 0 0.1
v -0.1 0.1 0.1
v 0 0 0.1
v 0 0.1 0.1
v 0.1 0 0.1
v 0.1 0.1 0.1
v 0.1 0.2 0.1
v 0.1 0.9 0.1
v 0.4 1 0.1
v 0.4 1.2 0.1
v 0.4 1.6 0.1
v 0.4 1.7 0.1
v 0.5 1 0.1
v 0.5 1.2 0.1
v -0.5 0.9 0
v -0.5 1 0
v -0.4 0.7 0
v -0.4 0.8 0
v -0.4 0.9 0
v -0.3 0.2 0
v -0.3 0.6 0
v -0.3 0.7 0
v -0.3 0.8 0
v -0.2 0.1 0
v -0.2 0.2 0
v -0.2 0.9 0
v -0.1 0.1 0
v -0.1 0.2 0
v -0.1 0.9 0
v -0.1 1 0
v 0 0.1 0
v 0 0.2 0
v 0 0.9 0
v 0 1 0
v 0.1 0.1 0
v 0.1 0.2 0
v 0.1 0.9 0
v 0.2 0.2 0
v 0.2 0.6 0
v 0.2 0.7 0
v 0.2 0.8 0
v 0.3 0.7 0
v 0.3 0.8 0
v 0.3 0.9 0
v 0.4 0.9 0
v 0.4 1 0
v -0.2 0.7 -0.1
v -0.2 0.8 -0.1
v 0.1 0.7 -0.1
v 0.1 0.8 -0.1
v -0.3 0.8 -0.2
v -0.3 0.9 -0.2
v -0.2 0.8 -0.2
v -0.2 0.9 -0.2
v 0.1 0.8 -0.2
v 0.1 0.9 -0.2
v 0.2 0.8 -0.2
v 0.2 0.9 -0.2
v -0.2 0.9 0.2
v -0.2 1 0.2
v -0.1 0.8 0.2
v -0.1 0.9 0.2
v 0 0.8 0.2
v 0 0.9 0.2
v 0.1 0.9 0.2
v 0.1 1 0.2
v 0.2 0 0.2
v 0.2 0.5 0.2
v 0.3 0 0.2
v 0.3 0.5 0.2
v 0.2 0.5 0.1
v 0.2 0.6 0.1
v 0.3 0.5 0.1
v 0.3 0.6 0.1
v -0.2 0.7 0
v -0.2 0.8 0
v 0.1 0.7 0
v 0.1 0.8 0
v -0.4 0.6 -0.1
v -0.4 0.8 -0.1
v -0.4 0.9 -0.1
v -0.4 1.6 -0.1
v -0.4 1.7 -0.1
v -0.3 0.2 -0.1
v -0.3 0.6 -0.1
v -0.3 0.8 -0.1
v -0.3 1.6 -0.1
v -0.3 1.7 -0.1
v -0.2 0 -0.1
v -0.2 0.2 -0.1
v -0.2 0.9 -0.1
v -0.1 0 -0.1
v -0.1 0.2 -0.1
v 0 0 -0.1
v 0 0.2 -0.1
v 0.1 0 -0.1
v 0.1 0.2 -0.1
v 0.1 0.9 -0.1
v 0.2 0.2 -0.1
v 0.2 0.6 -0.1
v 0.2 0.8 -0.1
v 0.3 0.6 -0.1
v 0.3 0.8 -0.1
v 0.3 0.9 -0.1
v -0.6 1 -0.2
v -0.6 1.1 -0.2
v -0.6 1.5 -0.2
v -0.5 0.9 -0.2
v -0.5 1 -0.2
v -0.5 1.1 -0.2
v -0.5 1.5 -0.2
v -0.4 0.9 -0.2
v -0.4 1 -0.2
v -0.2 0.2 -0.2
v -0.2 0.7 -0.2
v 0.1 0.2 -0.2
v 0.1 0.7 -0.2
v 0.3 1.6 -0.2
v 0.3 1.7 -0.2
v 0.4 1 -0.2
v 0.4 1.1 -0.2
v 0.4 1.5 -0.2
v 0.4 1.6 -0.2
v 0.4 1.7 -0.2
v 0.5 1 -0.2
v 0.5 1.1 -0.2
v 0.5 1.5 -0.2
v 0.5 1.6 -0.2
v -0.5 1 -0.3
v -0.5 1.1 -0.3
v -0.5 1.6 -0.3
v -0.4 0.9 -0.3
v -0.4 1 -0.3
v -0.4 1.1 -0.3
v -0.4 1.5 -0.3
v -0.3 0.8 -0.3
v -0.3 0.9 -0.3
v -0.3 1.6 -0.3
v -0.3 1.7 -0.3
v -0.2 0.7 -0.3
v -0.2 0.8 -0.3
v -0.2 1 -0.3
v -0.2 1.1 -0.3
v -0.1 1 -0.3
v -0.1 1.1 -0.3
v 0.1 0.7 -0.3
v 0.1 0.8 -0.3
v 0.1 1 -0.3
v 0.1 1.1 -0.3
v 0.1 1.2 -0.3
v 0.2 0.8 -0.3
v 0.2 0.9 -0.3
v 0.2 1.2 -0.3
v 0.2 1.3 -0.3
v 0.3 1.3 -0.3
v 0.3 1.5 -0.3
v 0.3 1.6 -0.3
v 0.3 1.7 -0.3
v 0.4 0.9 -0.3
v 0.4 1.1 -0.3
v 0.4 1.5 -0.3
v 0.4 1.6 -0.3
v 0.5 1.1 -0.3
v 0.5 1.5 -0.3
v -0.4 1.1 -0.4
v -0.4 1.5 -0.4
v 0.1 1.1 -0.4
v 0.1 1.2 -0.4
v 0.2 1.2 -0.4
v 0.2 1.3 -0.4
v 0.3 1.3 -0.4
v 0.3 1.5 -0.4
v 0.2 0 0.3
v 0.3 0 0.3
v 0.2 0 0.2
v 0.3 0 0.2
v -0.2 0 0.1
v -0.1 0 0.1
v 0 0 0.1
v 0.1 0 0.1
v -0.2 0 -0.1
v -0.1 0 -0.1
v 0 0 -0.1
v 0.1 0 -0.1
v -0.2 0.2 0.1
v 0.1 0.2 0.1
v -0.3 0.2 0
v -0.2 0.2 0
v -0.1 0.2 0
v 0 0.2 0
v 0.1 0.2 0
v 0.2 0.2 0
v -0.3 0.2 -0.1
v -0.2 0.2 -0.1
v -0.1 0.2 -0.1
v 0 0.2 -0.1
v 0.1 0.2 -0.1
v 0.2 0.2 -0.1
v -0.2 0.2 -0.2
v 0.1 0.2 -0.2
v 0.2 0.5 0.2
v 0.3 0.5 0.2
v 0.2 0.5 0.1
v 0.3 0.5 0.1
v -0.4 0.6 0.2
v -0.3 0.6 0.2
v 0.2 0.6 0.1
v 0.3 0.6 0.1
v -0.3 0.6 0
v 0.2 0.6 0
v -0.4 0.6 -0.1
v -0.3 0.6 -0.1
v 0.2 0.6 -0.1
v 0.3 0.6 -0.1
v -0.2 0.7 -0.2
v 0.1 0.7 -0.2
v -0.2 0.7 -0.3
v 0.1 0.7 -0.3
v -0.1 0.8 0.3
v 0 0.8 0.3
v -0.1 0.8 0.2
v 0 0.8 0.2
v -0.2 0.8 0
v 0.1 0.8 0
v -0.2 0.8 -0.1
v 0.1 0.8 -0.1
v -0.3 0.8 -0.2
v -0.2 0.8 -0.2
v 0.1 0.8 -0.2
v 0.2 0.8 -0.2
v -0.3 0.8 -0.3
v -0.2 0.8 -0.3
v 0.1 0.8 -0.3
v 0.2 0.8 -0.3
v -0.2 0.9 0.3
v -0.1 0.9 0.3
v 0 0.9 0.3
v 0.1 0.9 0.3
v -0.2 0.9 0.2
v -0.1 0.9 0.2
v 0 0.9 0.2
v 0.1 0.9 0.2
v -0.5 0.9 0
v -0.4 0.9 0
v 0.3 0.9 0
v 0.4 0.9 0
v -0.4 0.9 -0.1
v -0.2 0.9 -0.1
v 0.1 0.9 -0.1
v 0.3 0.9 -0.1
v -0.5 0.9 -0.2
v -0.4 0.9 -0.2
v -0.3 0.9 -0.2
v -0.2 0.9 -0.2
v 0.1 0.9 -0.2
v 0.2 0.9 -0.2
v -0.4 0.9 -0.3
v -0.3 0.9 -0.3
v 0.2 0.9 -0.3
v 0.4 0.9 -0.3
v -0.3 1 0.3
v -0.2 1 0.3
v 0.1 1 0.3
v 0.2 1 0.3
v -0.5 1 0.2
v -0.3 1 0.2
v -0.2 1 0.2
v 0.1 1 0.2
v 0.2 1 0.2
v 0.4 1 0.2
v -0.6 1 0.1
v -0.5 1 0.1
v -0.2 1 0.1
v 0.1 1 0.1
v 0.4 1 0.1
v 0.5 1 0.1
v -0.5 1 0
v -0.1 1 0
v 0 1 0
v 0.4 1 0
v -0.6 1 -0.1
v -0.5 1 -0.1
v 0.4 1 -0.1
v 0.5 1 -0.1
v -0.6 1 -0.2
v -0.5 1 -0.2
v -0.4 1 -0.2
v 0.4 1 -0.2
v 0.5 1 -0.2
v -0.5 1 -0.3
v -0.4 1 -0.3
v -0.5 1.1 0.3
v -0.4 1.1 0.3
v -0.6 1.1 0.2
v -0.5 1.1 0.2
v -0.4 1.1 0.2
v -0.6 1.1 0.1
v -0.5 1.1 0.1
v 0.4 1.1 -0.2
v 0.5 1.1 -0.2
v -0.4 1.1 -0.3
v -0.2 1.1 -0.3
v -0.1 1.1 -0.3
v 0.1 1.1 -0.3
v 0.4 1.1 -0.3
v 0.5 1.1 -0.3
v -0.4 1.1 -0.4
v 0.1 1.1 -0.4
v 0.3 1.2 0.3
v 0.4 1.2 0.3
v 0.3 1.2 0.2
v 0.4 1.2 0.2
v 0.5 1.2 0.2
v 0.4 1.2 0.1
v 0.5 1.2 0.1
v 0.1 1.2 -0.3
v 0.2 1.2 -0.3
v 0.1 1.2 -0.4
v 0.2 1.2 -0.4
v -0.4 1.3 0.3
v -0.3 1.3 0.3
v -0.4 1.3 0.2
v -0.3 1.3 0.2
v 0.2 1.3 -0.3
v 0.3 1.3 -0.3
v 0.2 1.3 -0.4
v 0.3 1.3 -0.4
v -0.3 1.4 0.3
v -0.2 1.4 0.3
v 0.3 1.4 0.3
v -0.3 1.4 0.2
v -0.2 1.4 0.2
v 0.1 1.4 0.2
v 0.2 1.4 0.2
v 0.3 1.4 0.2
v -0.2 0.1 0.1
v -0.1 0.1 0.1
v 0 0.1 0.1
v 0.1 0.1 0.1
v -0.2 0.1 0
v -0.1 0.1 0
v 0 0.1 0
v 0.1 0.1 0
v 0.2 0.7 0.3
v 0.3 0.7 0.3
v -0.4 0.7 0.2
v -0.3 0.7 0.2
v 0.2 0.7 0.2
v 0.3 0.7 0.2
v -0.4 0.7 0
v -0.3 0.7 0
v -0.2 0.7 0
v 0.1 0.7 0
v 0.2 0.7 0
v 0.3 0.7 0
v -0.2 0.7 -0.1
v 0.1 0.7 -0.1
v -0.2 0.9 0.1
v 0.1 0.9 0.1
v -0.2 0.9 0
v -0.1 0.9 0
v 0 0.9 0
v 0.1 0.9 0
v -0.2 1 0.3
v 0.1 1 0.3
v -0.2 1 0.2
v 0.1 1 0.2
v -0.3 1.1 0.3
v -0.2 1.1 0.3
v 0.1 1.1 0.3
v 0.2 1.1 0.3
v -0.3 1.1 0.2
v -0.2 1.1 0.2
v 0.1 1.1 0.2
v 0.2 1.1 0.2
v -0.5 1.5 0.3
v -0.4 1.5 0.3
v -0.6 1.5 0.2
v -0.5 1.5 0.2
v -0.4 1.5 0.2
v -0.6 1.5 -0.2
v -0.5 1.5 -0.2
v 0.4 1.5 -0.2
v 0.5 1.5 -0.2
v -0.4 1.5 -0.3
v 0.3 1.5 -0.3
v 0.4 1.5 -0.3
v 0.5 1.5 -0.3
v -0.4 1.5 -0.4
v 0.3 1.5 -0.4
v -0.4 1.6 0.3
v 0.4 1.6 0.3
v -0.5 1.6 0.2
v -0.4 1.6 0.2
v 0.4 1.6 0.2
v 0.5 1.6 0.2
v -0.4 1.6 0.1
v 0.4 1.6 0.1
v -0.4 1.6 -0.1
v -0.3 1.6 -0.1
v 0.3 1.6 -0.2
v 0.4 1.6 -0.2
v 0.5 1.6 -0.2
v -0.5 1.6 -0.3
v -0.3 1.6 -0.3
v 0.3 1.6 -0.3
v 0.4 1.6 -0.3
v -0.4 1.7 0.1
v 0.4 1.7 0.1
v -0.4 1.7 -0.1
v -0.3 1.7 -0.1
v 0.3 1.7 -0.2
v 0.4 1.7 -0.2
v -0.3 1.7 -0.3
v 0.3 1.7 -0.3

# faces
f 5/8/1 2/8/1 1/8/1
f 6/3/1 3/3/1 2/3/1
f 6/8/1 2/8/1 5/8/1
f 7/3/1 3/3/1 6/3/1
f 8/8/1 5/8/1 4/8/1
f 8/8/1 6/8/1 5/8/1
f 8/8/1 7/8/1 6/8/1
f 9/8/1 7/8/1 8/8/1
f 14/3/1 11/3/1 10/3/1
f 15/3/1 11/3/1 14/3/1
f 16/3/1 11/3/1 15/3/1
f 19/5/1 13/5/1 12/5/1
f 20/5/1 13/5/1 19/5/1
f 21/3/1 17/3/1 16/3/1
f 22/3/1 17/3/1 21/3/1
f 23/8/1 19/8/1 18/8/1
f 24/8/1 19/8/1 23/8/1
f 25/8/1 22/8/1 21/8/1
f 26/8/1 25/8/1 24/8/1
f 27/8/1 22/8/1 25/8/1
f 27/8/1 25/8/1 26/8/1
f 30/5/1 29/5/1 28/5/1
f 31/5/1 29/5/1 30/5/1
f 32/5/1 29/5/1 31/5/1
f 33/5/1 29/5/1 32/5/1
f 34/7/1 33/7/1 32/7/1
f 35/7/1 33/7/1 34/7/1
f 38/3/1 37/3/1 36/3/1
f 39/3/1 37/3/1 38/3/1
f 44/8/1 41/8/1 40/8/1
f 45/8/1 41/8/1 44/8/1
f 46/8/1 43/8/1 42/8/1
f 47/8/1 43/8/1 46/8/1
f 50/8/1 49/8/1 48/8/1
f 51/8/1 49/8/1 50/8/1
f 54/7/1 53/7/1 52/7/1
f 55/7/1 53/7/1 54/7/1
f 58/3/1 57/3/1 56/3/1
f 59/3/1 57/3/1 58/3/1
f 62/3/1 61/3/1 60/3/1
f 63/3/1 61/3/1 62/3/1
f 66/8/1 65/8/1 64/8/1
f 67/8/1 65/8/1 66/8/1
f 70/6/1 69/6/1 68/6/1
f 71/6/1 69/6/1 70/6/1
f 73/6/1 69/6/1 71/6/1
f 74/6/1 69/6/1 73/6/1
f 76/7/1 75/7/1 74/7/1
f 78/7/1 76/7/1 74/7/1
f 78/3/1 77/3/1 76/3/1
f 79/3/1 77/3/1 78/3/1
f 82/7/1 73/7/1 72/7/1
f 83/7/1 73/7/1 82/7/1
f 84/7/1 78/7/1 74/7/1
f 85/7/1 78/7/1 84/7/1
f 86/3/1 81/3/1 80/3/1
f 87/3/1 81/3/1 86/3/1
f 90/3/1 89/3/1 88/3/1
f 91/3/1 89/3/1 90/3/1
f 94/6/1 93/6/1 92/6/1
f 95/6/1 93/6/1 94/6/1
f 96/6/1 93/6/1 95/6/1
f 97/6/1 93/6/1 96/6/1
f 100/7/1 99/7/1 98/7/1
f 101/7/1 99/7/1 100/7/1
f 104/3/1 103/3/1 102/3/1
f 105/3/1 103/3/1 104/3/1
f 108/2/1 107/2/1 106/2/1
f 110/2/1 108/2/1 106/2/1
f 110/2/1 109/2/1 108/2/1
f 111/2/1 109/2/1 110/2/1
f 113/2/1 110/2/1 106/2/1
f 114/5/1 112/5/1 111/5/1
f 114/2/1 110/2/1 113/2/1
f 114/5/1 111/5/1 110/5/1
f 115/5/1 112/5/1 114/5/1
f 118/8/1 117/8/1 116/8/1
f 119/8/1 117/8/1 118/8/1
f 120/8/2 121/8/2 122/8/2
f 122/8/2 121/8/2 123/8/2
f 124/5/2 125/5/2 126/5/2
f 126/5/2 125/5/2 127/5/2
f 128/3/2 129/3/2 130/3/2
f 130/3/2 129/3/2 131/3/2
f 132/7/2 133/7/2 134/7/2
f 134/7/2 133/7/2 135/7/2
f 136/3/2 137/3/2 138/3/2
f 138/3/2 137/3/2 139/3/2
f 140/6/2 141/6/2 142/6/2
f 142/6/2 141/6/2 143/6/2
f 143/6/2 141/6/2 144/6/2
f 144/6/2 141/6/2 145/6/2
f 146/3/2 147/3/2 148/3/2
f 148/3/2 147/3/2 149/3/2
f 150/6/2 151/6/2 152/6/2
f 152/6/2 151/6/2 153/6/2
f 153/6/2 151/6/2 155/6/2
f 155/6/2 151/6/2 156/6/2
f 156/7/2 157/7/2 158/7/2
f 156/7/2 158/7/2 160/7/2
f 158/3/2 159/3/2 160/3/2
f 160/3/2 159/3/2 161/3/2
f 154/7/2 155/7/2 164/7/2
f 164/7/2 155/7/2 165/7/2
f 156/7/2 160/7/2 166/7/2
f 166/7/2 160/7/2 167/7/2
f 162/3/2 163/3/2 168/3/2
f 168/3/2 163/3/2 169/3/2
f 170/8/2 171/8/2 172/8/2
f 172/8/2 171/8/2 173/8/2
f 174/7/2 175/7/2 176/7/2
f 176/7/2 175/7/2 177/7/2
f 178/3/2 179/3/2 180/3/2
f 180/3/2 179/3/2 181/3/2
f 182/3/2 183/3/2 184/3/2
f 184/3/2 183/3/2 185/3/2
f 186/8/2 187/8/2 188/8/2
f 188/8/2 187/8/2 189/8/2
f 190/2/2 191/2/2 192/2/2
f 190/2/2 192/2/2 194/2/2
f 192/2/2 193/2/2 194/2/2
f 194/2/2 193/2/2 195/2/2
f 190/2/2 194/2/2 197/2/2
f 195/5/2 196/5/2 198/5/2
f 197/2/2 194/2/2 198/2/2
f 194/5/2 195/5/2 198/5/2
f 198/5/2 196/5/2 199/5/2
f 199/5/2 196/5/2 200/5/2
f 200/5/2 196/5/2 201/5/2
f 200/7/2 201/7/2 202/7/2
f 202/7/2 201/7/2 203/7/2
f 204/8/2 205/8/2 206/8/2
f 206/8/2 205/8/2 207/8/2
f 208/8/2 209/8/2 210/8/2
f 210/8/2 209/8/2 211/8/2
f 212/3/2 213/3/2 216/3/2
f 216/3/2 213/3/2 217/3/2
f 217/3/2 213/3/2 218/3/2
f 218/3/2 213/3/2 219/3/2
f 219/3/2 213/3/2 220/3/2
f 214/5/2 215/5/2 222/5/2
f 222/5/2 215/5/2 223/5/2
f 221/8/2 222/8/2 226/8/2
f 226/8/2 222/8/2 227/8/2
f 224/8/2 225/8/2 229/8/2
f 229/8/2 225/8/2 230/8/2
f 228/8/2 229/8/2 231/8/2
f 231/8/2 229/8/2 232/8/2
f 233/8/2 234/8/2 236/8/2
f 234/3/2 235/3/2 236/3/2
f 236/3/2 235/3/2 237/3/2
f 233/8/2 236/8/2 240/8/2
f 237/8/2 238/8/2 240/8/2
f 236/8/2 237/8/2 240/8/2
f 240/8/2 238/8/2 241/8/2
f 239/8/2 240/8/2 241/8/2
f 241/8/2 238/8/2 242/8/2
f 239/8/2 241/8/2 243/8/2
f 243/8/2 241/8/2 244/8/2
f 247/8/3 246/8/3 245/8/3
f 248/8/3 246/8/3 247/8/3
f 249/8/3 246/8/3 248/8/3
f 253/3/3 249/3/3 248/3/3
f 254/3/3 249/3/3 253/3/3
f 256/3/3 252/3/3 251/3/3
f 257/3/3 252/3/3 256/3/3
f 258/3/3 249/3/3 254/3/3
f 259/8/3 250/8/3 249/8/3
f 259/3/3 249/3/3 258/3/3
f 261/3/3 256/3/3 255/3/3
f 262/3/3 261/3/3 260/3/3
f 263/3/3 256/3/3 261/3/3
f 263/3/3 261/3/3 262/3/3
f 264/3/3 256/3/3 263/3/3
f 265/3/3 256/3/3 264/3/3
f 269/3/3 266/3/3 265/3/3
f 270/3/3 266/3/3 269/3/3
f 271/2/3 268/2/3 267/2/3
f 272/2/3 268/2/3 271/2/3
f 274/8/3 259/8/3 258/8/3
f 275/8/3 274/8/3 273/8/3
f 276/8/3 250/8/3 259/8/3
f 276/8/3 274/8/3 275/8/3
f 276/8/3 259/8/3 274/8/3
f 280/8/3 278/8/3 277/8/3
f 281/8/3 278/8/3 280/8/3
f 285/5/3 280/5/3 279/5/3
f 287/8/3 282/8/3 281/8/3
f 288/8/3 282/8/3 287/8/3
f 289/5/3 284/5/3 283/5/3
f 290/5/3 284/5/3 289/5/3
f 291/5/3 286/5/3 285/5/3
f 291/5/3 285/5/3 279/5/3
f 292/5/3 286/5/3 291/5/3
f 293/5/3 286/5/3 292/5/3
f 294/5/3 286/5/3 293/5/3
f 297/5/3 293/5/3 292/5/3
f 298/6/3 294/6/3 293/6/3
f 298/5/3 293/5/3 297/5/3
f 299/1/3 295/1/3 294/1/3
f 299/6/3 294/6/3 298/6/3
f 300/1/3 295/1/3 299/1/3
f 301/4/3 297/4/3 296/4/3
f 302/5/3 298/5/3 297/5/3
f 302/4/3 297/4/3 301/4/3
f 302/5/3 299/5/3 298/5/3
f 302/5/3 300/5/3 299/5/3
f 303/5/3 300/5/3 302/5/3
f 304/5/3 300/5/3 303/5/3
f 305/5/3 300/5/3 304/5/3
f 307/5/3 303/5/3 302/5/3
f 308/6/3 304/6/3 303/6/3
f 308/5/3 303/5/3 307/5/3
f 309/1/3 305/1/3 304/1/3
f 309/6/3 304/6/3 308/6/3
f 310/1/3 305/1/3 309/1/3
f 311/5/3 308/5/3 307/5/3
f 311/5/3 307/5/3 306/5/3
f 311/5/3 310/5/3 309/5/3
f 311/5/3 309/5/3 308/5/3
f 312/5/3 310/5/3 311/5/3
f 313/5/3 311/5/3 306/5/3
f 314/5/3 311/5/3 313/5/3
f 316/8/3 315/8/3 314/8/3
f 317/8/3 315/8/3 316/8/3
f 320/8/3 319/8/3 318/8/3
f 321/8/3 319/8/3 320/8/3
f 328/6/3 325/6/3 324/6/3
f 329/6/3 325/6/3 328/6/3
f 332/6/3 331/6/3 330/6/3
f 333/6/3 331/6/3 332/6/3
f 334/7/3 327/7/3 326/7/3
f 335/7/3 327/7/3 334/7/3
f 338/8/3 323/8/3 322/8/3
f 339/8/3 323/8/3 338/8/3
f 340/8/3 337/8/3 336/8/3
f 341/8/3 337/8/3 340/8/3
f 346/3/3 343/3/3 342/3/3
f 349/5/3 345/5/3 344/5/3
f 350/7/3 346/7/3 345/7/3
f 350/5/3 345/5/3 349/5/3
f 352/7/3 348/7/3 347/7/3
f 352/7/3 349/7/3 348/7/3
f 352/7/3 350/7/3 349/7/3
f 353/7/3 346/7/3 350/7/3
f 353/3/3 343/3/3 346/3/3
f 353/7/3 350/7/3 352/7/3
f 354/6/3 352/6/3 351/6/3
f 355/6/3 352/6/3 354/6/3
f 356/3/3 343/3/3 353/3/3
f 357/3/3 343/3/3 356/3/3
f 360/5/3 357/5/3 356/5/3
f 361/5/3 357/5/3 360/5/3
f 362/6/3 359/6/3 358/6/3
f 363/6/3 359/6/3 362/6/3
f 364/3/3 361/3/3 360/3/3
f 365/7/3 364/7/3 363/7/3
f 366/7/3 364/7/3 365/7/3
f 367/7/3 364/7/3 366/7/3
f 368/7/3 364/7/3 367/7/3
f 369/5/3 368/5/3 367/5/3
f 370/7/3 364/7/3 368/7/3
f 370/5/3 368/5/3 369/5/3
f 371/3/3 361/3/3 364/3/3
f 371/7/3 364/7/3 370/7/3
f 372/3/3 361/3/3 371/3/3
f 373/3/3 361/3/3 372/3/3
f 376/7/3 375/7/3 374/7/3
f 377/7/3 375/7/3 376/7/3
f 380/3/3 379/3/3 378/3/3
f 381/3/3 379/3/3 380/3/3
f 384/3/3 383/3/3 382/3/3
f 385/3/3 383/3/3 384/3/3
f 386/3/4 387/3/4 389/3/4
f 388/3/4 389/3/4 390/3/4
f 389/3/4 387/3/4 391/3/4
f 390/3/4 389/3/4 391/3/4
f 391/3/4 387/3/4 392/3/4
f 392/3/4 387/3/4 393/3/4
f 394/2/4 395/2/4 396/2/4
f 396/2/4 395/2/4 397/2/4
f 398/2/4 399/2/4 400/2/4
f 400/2/4 399/2/4 401/2/4
f 402/7/4 403/7/4 404/7/4
f 404/7/4 403/7/4 405/7/4
f 406/5/4 407/5/4 412/5/4
f 407/7/4 408/7/4 413/7/4
f 412/5/4 407/5/4 413/5/4
f 409/8/4 410/8/4 414/8/4
f 414/8/4 410/8/4 415/8/4
f 411/7/4 412/7/4 417/7/4
f 412/7/4 413/7/4 417/7/4
f 413/7/4 408/7/4 418/7/4
f 417/7/4 413/7/4 418/7/4
f 416/6/4 417/6/4 419/6/4
f 419/6/4 417/6/4 420/6/4
f 421/6/4 422/6/4 423/6/4
f 423/6/4 422/6/4 424/6/4
f 424/7/4 425/7/4 426/7/4
f 426/7/4 425/7/4 427/7/4
f 427/7/4 425/7/4 428/7/4
f 427/5/4 428/5/4 429/5/4
f 428/7/4 425/7/4 430/7/4
f 429/5/4 428/5/4 430/5/4
f 430/7/4 425/7/4 431/7/4
f 432/3/4 433/3/4 436/3/4
f 433/8/4 434/8/4 437/8/4
f 436/3/4 433/3/4 437/3/4
f 437/8/4 434/8/4 438/8/4
f 435/3/4 436/3/4 439/3/4
f 439/3/4 436/3/4 440/3/4
f 441/7/4 442/7/4 443/7/4
f 443/7/4 442/7/4 444/7/4
f 445/8/4 446/8/4 450/8/4
f 450/8/4 446/8/4 451/8/4
f 447/3/4 448/3/4 452/3/4
f 452/3/4 448/3/4 453/3/4
f 449/8/4 450/8/4 454/8/4
f 454/8/4 450/8/4 455/8/4
f 456/3/4 457/3/4 460/3/4
f 457/8/4 458/8/4 461/8/4
f 460/3/4 457/3/4 461/3/4
f 461/8/4 458/8/4 462/8/4
f 459/3/4 460/3/4 464/3/4
f 462/8/4 458/8/4 465/8/4
f 463/3/4 464/3/4 468/3/4
f 460/8/4 461/8/4 469/8/4
f 464/3/4 460/3/4 469/3/4
f 468/3/4 464/3/4 469/3/4
f 469/8/4 461/8/4 470/8/4
f 467/3/4 468/3/4 471/3/4
f 468/3/4 469/3/4 471/3/4
f 469/3/4 470/3/4 471/3/4
f 471/3/4 470/3/4 472/3/4
f 467/3/4 471/3/4 473/3/4
f 473/3/4 471/3/4 474/3/4
f 471/8/4 472/8/4 475/8/4
f 474/3/4 471/3/4 475/3/4
f 475/8/4 472/8/4 476/8/4
f 475/3/4 476/3/4 478/3/4
f 474/3/4 475/3/4 478/3/4
f 478/3/4 476/3/4 479/3/4
f 476/8/4 477/8/4 480/8/4
f 480/8/4 481/8/4 482/8/4
f 465/8/4 466/8/4 483/8/4
f 462/8/4 465/8/4 483/8/4
f 483/8/4 466/8/4 484/8/4
f 484/8/4 466/8/4 485/8/4
f 479/3/4 476/3/4 486/3/4
f 480/8/4 482/8/4 487/8/4
f 486/3/4 476/3/4 487/3/4
f 476/8/4 480/8/4 487/8/4
f 483/8/4 484/8/4 487/8/4
f 482/8/4 483/8/4 487/8/4
f 487/8/4 484/8/4 488/8/4
f 488/8/4 484/8/4 489/8/4
f 487/8/4 488/8/4 490/8/4
f 490/8/4 488/8/4 491/8/4
f 492/8/4 493/8/4 494/8/4
f 494/8/4 493/8/4 495/8/4
f 495/8/4 493/8/4 496/8/4
f 496/8/4 493/8/4 497/8/4
f 497/8/4 493/8/4 498/8/4
f 498/8/4 493/8/4 499/8/4
f 502/2/5 501/2/5 500/2/5
f 503/2/5 501/2/5 502/2/5
f 508/6/5 505/6/5 504/6/5
f 509/6/5 505/6/5 508/6/5
f 510/6/5 507/6/5 506/6/5
f 511/6/5 507/6/5 510/6/5
f 515/7/5 513/7/5 512/7/5
f 516/7/5 513/7/5 515/7/5
f 517/7/5 513/7/5 516/7/5
f 518/7/5 513/7/5 517/7/5
f 520/7/5 515/7/5 514/7/5
f 521/7/5 515/7/5 520/7/5
f 522/7/5 517/7/5 516/7/5
f 523/7/5 517/7/5 522/7/5
f 524/7/5 519/7/5 518/7/5
f 525/7/5 519/7/5 524/7/5
f 526/7/5 523/7/5 522/7/5
f 526/7/5 524/7/5 523/7/5
f 526/7/5 522/7/5 521/7/5
f 527/7/5 524/7/5 526/7/5
f 530/2/5 529/2/5 528/2/5
f 531/2/5 529/2/5 530/2/5
f 536/5/5 533/5/5 532/5/5
f 537/5/5 535/5/5 534/5/5
f 538/5/5 536/5/5 532/5/5
f 539/5/5 536/5/5 538/5/5
f 540/5/5 535/5/5 537/5/5
f 541/5/5 535/5/5 540/5/5
f 544/3/5 543/3/5 542/3/5
f 545/3/5 543/3/5 544/3/5
f 548/3/5 547/3/5 546/3/5
f 549/3/5 547/3/5 548/3/5
f 552/7/5 551/7/5 550/7/5
f 553/7/5 551/7/5 552/7/5
f 558/3/5 555/3/5 554/3/5
f 559/3/5 555/3/5 558/3/5
f 560/3/5 557/3/5 556/3/5
f 561/3/5 557/3/5 560/3/5
f 566/3/5 563/3/5 562/3/5
f 567/3/5 563/3/5 566/3/5
f 568/3/5 565/3/5 564/3/5
f 569/3/5 565/3/5 568/3/5
f 574/3/5 571/3/5 570/3/5
f 577/3/5 573/3/5 572/3/5
f 578/3/5 575/3/5 574/3/5
f 578/3/5 574/3/5 570/3/5
f 579/3/5 575/3/5 578/3/5
f 580/3/5 575/3/5 579/3/5
f 581/3/5 575/3/5 580/3/5
f 582/3/5 577/3/5 576/3/5
f 583/3/5 577/3/5 582/3/5
f 584/3/5 580/3/5 579/3/5
f 585/3/5 580/3/5 584/3/5
f 586/3/5 577/3/5 583/3/5
f 587/3/5 573/3/5 577/3/5
f 587/3/5 577/3/5 586/3/5
f 593/3/5 589/3/5 588/3/5
f 594/3/5 589/3/5 593/3/5
f 595/3/5 591/3/5 590/3/5
f 596/3/5 591/3/5 595/3/5
f 599/5/5 594/5/5 593/5/5
f 599/5/5 593/5/5 592/5/5
f 600/4/5 595/4/5 594/4/5
f 600/5/5 594/5/5 599/5/5
f 601/5/5 597/5/5 596/5/5
f 601/4/5 595/4/5 600/4/5
f 601/5/5 596/5/5 595/5/5
f 602/5/5 597/5/5 601/5/5
f 604/5/5 600/5/5 599/5/5
f 604/8/5 599/8/5 598/8/5
f 604/5/5 602/5/5 601/5/5
f 604/5/5 601/5/5 600/5/5
f 605/5/5 602/5/5 604/5/5
f 606/5/5 602/5/5 605/5/5
f 607/8/5 603/8/5 602/8/5
f 607/5/5 602/5/5 606/5/5
f 608/8/5 604/8/5 598/8/5
f 609/8/5 604/8/5 608/8/5
f 610/8/5 603/8/5 607/8/5
f 611/8/5 603/8/5 610/8/5
f 612/3/5 609/3/5 608/3/5
f 613/3/5 609/3/5 612/3/5
f 615/3/5 611/3/5 610/3/5
f 616/3/5 611/3/5 615/3/5
f 617/3/5 614/3/5 613/3/5
f 618/3/5 614/3/5 617/3/5
f 622/8/5 620/8/5 619/8/5
f 623/8/5 620/8/5 622/8/5
f 624/8/5 622/8/5 621/8/5
f 625/8/5 622/8/5 624/8/5
f 632/8/5 627/8/5 626/8/5
f 633/8/5 627/8/5 632/8/5
f 634/8/5 631/8/5 630/8/5
f 634/8/5 629/8/5 628/8/5
f 634/8/5 630/8/5 629/8/5
f 635/8/5 631/8/5 634/8/5
f 638/8/5 637/8/5 636/8/5
f 639/8/5 637/8/5 638/8/5
f 641/8/5 640/8/5 639/8/5
f 642/8/5 640/8/5 641/8/5
f 645/8/5 644/8/5 643/8/5
f 646/8/5 644/8/5 645/8/5
f 649/3/5 648/3/5 647/3/5
f 650/3/5 648/3/5 649/3/5
f 653/8/5 652/8/5 651/8/5
f 654/8/5 652/8/5 653/8/5
f 658/3/5 656/3/5 655/3/5
f 659/8/5 657/8/5 656/8/5
f 659/3/5 656/3/5 658/3/5
f 660/8/5 657/8/5 659/8/5
f 661/8/5 657/8/5 660/8/5
f 662/8/5 657/8/5 661/8/5
f 663/6/6 664/6/6 667/6/6
f 667/6/6 664/6/6 668/6/6
f 665/6/6 666/6/6 669/6/6
f 669/6/6 666/6/6 670/6/6
f 671/2/6 672/2/6 675/2/6
f 675/2/6 672/2/6 676/2/6
f 673/5/6 674/5/6 677/5/6
f 677/5/6 674/5/6 678/5/6
f 675/5/6 676/5/6 681/5/6
f 681/5/6 676/5/6 682/5/6
f 679/7/6 680/7/6 683/7/6
f 683/7/6 680/7/6 684/7/6
f 685/7/6 686/7/6 687/7/6
f 687/7/6 686/7/6 688/7/6
f 688/7/6 686/7/6 689/7/6
f 689/7/6 686/7/6 690/7/6
f 691/3/6 692/3/6 693/3/6
f 693/3/6 692/3/6 694/3/6
f 695/3/6 696/3/6 699/3/6
f 699/3/6 696/3/6 700/3/6
f 697/3/6 698/3/6 701/3/6
f 701/3/6 698/3/6 702/3/6
f 703/8/6 704/8/6 706/8/6
f 706/8/6 704/8/6 707/8/6
f 705/8/6 706/8/6 708/8/6
f 708/8/6 706/8/6 709/8/6
f 710/8/6 711/8/6 714/8/6
f 714/8/6 711/8/6 715/8/6
f 712/8/6 713/8/6 716/8/6
f 716/8/6 713/8/6 717/8/6
f 718/8/6 719/8/6 721/8/6
f 721/8/6 719/8/6 722/8/6
f 720/8/6 721/8/6 724/8/6
f 722/8/6 723/8/6 724/8/6
f 721/8/6 722/8/6 724/8/6
f 724/8/6 723/8/6 725/8/6
f 720/8/6 724/8/6 726/8/6
f 725/8/6 723/8/6 729/8/6
f 729/8/6 723/8/6 730/8/6
f 726/8/6 727/8/6 731/8/6
f 720/8/6 726/8/6 731/8/6
f 731/8/6 727/8/6 732/8/6
f 728/8/6 729/8/6 733/8/6
f 733/8/6 729/8/6 734/8/6
f 735/8/6 736/8/6 737/8/6
f 737/8/6 736/8/6 738/8/6
f 738/8/6 736/8/6 739/8/6
f 739/8/6 736/8/6 740/8/6
f 738/8/6 739/8/6 741/8/6
f 741/8/6 739/8/6 742/8/6
